PathFileType	4	(X/Y/Z)	C:\Users\°ÂÌØÂü\Desktop\20210112\bx_y_10_502-Unnamed.trc
DataRate	CameraRate	NumFrames	NumMarkers	Units	OrigDataRate	OrigDataStartFrame	OrigNumFrames
50.00	50.00	       5	0	mm	50.00	188	       499
Frame#	Time	
		

188	3.740	-579.17450	89.77257	1325.92200	-756.03290	207.77473	537.01917	-792.89691	278.69144	876.89355				-948.21411	91.33105	1066.79626	-592.68182	-84.28611	1446.05872	-829.81323	250.65739	631.83264	-818.64856	247.36189	568.89709	-738.48303	12.77059	525.88232	-843.41351	257.62460	488.95596	-778.86823	145.41356	571.16284	-724.54395	71.80910	221.30806	-726.59583	214.10414	820.02380	-777.49469	227.88896	200.82445	-882.62921	295.95468	144.55585	-677.51648	52.79764	163.69614	-605.72437	16.28391	171.45634	-678.00238	175.90936	163.36871	-598.85486	224.34137	174.77664	-666.91180	299.63712	158.95261	-629.31775	306.66336	161.51195	-563.59894	259.47217	165.36562	-527.94086	304.11801	146.27614	-503.45346	92.33441	1745.73022	-571.73199	267.19077	1460.90002	-746.42511	211.78555	1053.42627	-517.93475	-72.60398	142.94431	-800.26978	176.41722	181.27185	-749.60175	-8.03764	1037.18701	-799.87012	-69.13089	868.89868	-774.09180	-9.87163	203.31754	-797.86682	52.09857	172.22485	-828.51251	-38.25323	477.33694	-666.56256	-70.23233	159.83690	-876.55664	-78.05105	141.27936	-768.88873	76.12791	571.59222	-796.38251	-31.93390	612.86664	-562.95569	-39.60490	163.06978	-624.50665	-80.81814	157.33791	-823.15735	276.65860	744.74109	-815.99365	-52.51488	712.23578	-719.51764	158.16148	222.07292	-798.19153	-28.58570	562.41309	
189	3.760	-582.82825	90.11080	1332.80701	-753.52045	208.22975	537.31628	-787.99615	278.89008	877.72131				-943.62677	92.15835	1065.83984	-600.48608	-84.16344	1453.78320	-826.29852	251.02188	632.65717	-815.81201	247.47675	569.43781	-735.67615	13.03820	526.36810	-841.03558	258.04318	489.93149	-776.10028	145.12712	572.23535	-723.83026	71.99687	220.12007	-722.40881	214.66904	820.82861	-777.00793	227.72404	201.18871	-882.55286	296.08148	144.77122	-677.49634	52.72718	163.76112	-605.50330	16.20853	171.56995	-677.75507	176.00531	163.24319	-598.61920	224.27776	174.90166	-666.78223	299.67255	159.03246	-629.09662	306.52701	161.56776	-563.40057	259.33493	165.36765	-528.08142	304.03625	146.28418	-516.00500	92.33548	1755.55017	-578.31970	267.35675	1468.66602	-741.97278	212.34377	1055.36230	-518.32959	-72.87885	143.09470	-800.21973	176.47720	181.39787	-745.80286	-7.75384	1038.94617	-795.57745	-68.53244	869.01135	-774.08685	-9.71899	203.50797	-797.86639	52.26564	172.36446	-826.50916	-37.47981	477.50854	-666.56635	-70.13220	159.52991	-876.23547	-78.13535	140.99023	-766.11182	75.79338	571.89581	-793.56769	-31.08773	613.43970	-563.47589	-39.96649	163.47305	-624.61121	-80.81413	157.36023	-817.44415	276.20648	744.55542	-812.59351	-51.77647	713.39301	-719.29840	158.14658	221.86867	-795.47113	-27.99278	562.96936	
190	3.780	-585.89453	89.84102	1339.89209	-750.40076	208.13364	537.01038	-783.25891	279.37836	878.48169				-940.19299	93.07231	1065.44788	-607.36389	-84.45497	1461.03857	-822.52844	251.00888	633.44916	-812.93652	248.02487	570.36719	-733.38348	13.35114	525.87561	-838.48065	257.88177	490.85236	-772.48920	145.61386	572.74005	-723.55902	72.05862	220.19897	-717.28894	215.19681	821.64966	-776.98859	227.92995	201.41451	-882.60297	296.05933	144.67610	-677.51648	52.79764	163.69614	-605.46155	16.24459	171.64810	-677.77863	176.07912	162.66650	-598.33820	224.17540	174.90173	-666.83862	299.56482	158.89969	-629.13501	306.52365	161.67122	-563.22656	259.33557	165.23689	-527.99561	303.95700	146.33847	-528.50275	92.08702	1764.63245	-584.85156	268.09631	1476.06934	-737.65979	213.06227	1057.33276	-518.18695	-72.81681	142.99280	-800.03357	176.48894	181.61411	-741.61127	-7.45173	1040.70935	-791.33038	-68.53027	870.15314	-774.06525	-9.51778	203.52841	-797.62299	52.28157	172.10463	-824.36121	-36.72225	478.26575	-666.49304	-70.14721	159.74712	-876.15411	-78.06535	140.89095	-762.60376	76.40349	572.70526	-789.55499	-31.20399	615.00903	-563.30115	-40.40117	163.61855	-624.73621	-80.88731	157.44582	-813.33459	276.26764	745.54486	-808.99854	-50.86478	713.61023	-718.97137	157.97162	221.85493	-793.08240	-27.90071	563.93060	
191	3.800	-589.16412	89.68906	1346.52332	-747.72150	208.38072	537.54810	-778.12524	279.98209	879.38422				-937.32153	94.14110	1066.26892	-614.31342	-84.30226	1468.12073	-819.27710	251.62027	634.68890	-809.77423	247.97157	571.14581	-730.85773	13.27940	525.87238	-836.03906	257.98029	491.28448	-769.15698	145.89809	573.14337	-723.27448	72.37683	219.99315	-712.94171	215.68619	822.05267	-776.81067	227.89702	201.55768	-882.60297	296.05933	144.67610	-677.16638	52.83462	163.36615	-605.76019	15.99907	171.45937	-678.37488	175.74829	162.37761	-598.57019	224.37512	174.84427	-666.81909	299.46243	159.03073	-629.12122	306.43616	161.74478	-563.01624	259.39682	165.37083	-528.02179	304.13281	146.54268	-541.08350	92.23424	1773.04028	-591.93420	268.48386	1482.90234	-733.23657	212.55450	1058.30237	-518.11090	-72.93003	143.07579	-799.83014	176.37364	181.69868	-737.36963	-7.35844	1042.56323	-787.22522	-68.29289	870.85004	-773.60687	-9.36182	203.61749	-797.60596	52.55849	172.33067	-822.55353	-36.18990	479.39359	-666.70782	-70.19537	159.92441	-876.06873	-78.18630	140.99452				-787.38208	-30.43522	614.70013	-563.28802	-40.23960	163.70047	-624.61121	-80.81413	157.36023	-808.95300	275.88562	746.31854	-805.78394	-50.35846	714.34473	-718.74103	157.82089	221.72055	-790.23450	-27.05760	564.63068	
192	3.820	-592.65625	89.99252	1353.23035	-744.84894	208.25641	537.64581	-773.42822	280.21347	880.10248	-756.90869	76.83027	573.38171				-621.00940	-84.37804	1474.88367	-815.89130	251.41583	635.58386	-806.81219	248.11563	571.46045	-728.85791	13.83792	525.44885	-833.88184	257.83649	492.36890	-766.37128	146.55173	573.60516	-723.15967	72.40250	220.13162	-708.00385	216.46747	823.11584	-776.56946	227.83713	201.49538	-882.53833	296.02689	144.69760	-677.16638	52.83462	163.36615	-605.82568	16.03947	171.58031	-677.81189	175.84488	162.34102	-598.32849	224.37228	174.93872	-666.78223	299.67255	159.03246	-629.07050	306.41049	161.82628	-562.70844	259.17468	165.21396	-527.94086	304.11801	146.27614	-553.18597	92.26122	1781.29565	-599.13306	268.38763	1489.29395	-728.15436	213.56148	1059.84448	-517.97449	-72.62067	142.98399	-799.68335	176.12311	181.79611	-732.74017	-6.83273	1044.22974	-782.66974	-67.53409	871.56384	-773.68018	-9.25503	203.99823	-797.62262	52.71086	172.36472	-820.69257	-35.28244	480.15524	-666.79834	-70.13406	159.57637	-876.05652	-78.24364	140.94733				-784.57886	-30.34272	615.01227	-563.24414	-40.29163	163.60162	-624.73303	-80.76327	157.25616	-804.73724	275.74466	746.85254	-802.18298	-49.66317	715.23993	-717.99469	157.87749	221.29987	-787.33167	-27.09708	565.18665	
